<svg xmlns="http://www.w3.org/2000/svg" width="1200" height="630" viewBox="0 0 1200 630">
  <rect width="1200" height="630" fill="#11110f"/>
  <path d="M0 512h1200" stroke="#f2eee6" stroke-opacity="0.1" stroke-width="2"/>
  <path d="M0 168h1200" stroke="#f2eee6" stroke-opacity="0.07" stroke-width="2"/>
  <circle cx="982" cy="120" r="250" fill="#f2b46d" opacity="0.13"/>

  <g transform="translate(82 72) scale(4.6)" fill="none" stroke="#f2b46d" stroke-width="2" stroke-linecap="round" stroke-linejoin="round">
    <path d="M2 22 16 8"/>
    <path d="M3.47 12.53 5 11l1.53 1.53a3.5 3.5 0 0 1 0 4.94L5 19l-1.53-1.53a3.5 3.5 0 0 1 0-4.94Z"/>
    <path d="M7.47 8.53 9 7l1.53 1.53a3.5 3.5 0 0 1 0 4.94L9 15l-1.53-1.53a3.5 3.5 0 0 1 0-4.94Z"/>
    <path d="M11.47 4.53 13 3l1.53 1.53a3.5 3.5 0 0 1 0 4.94L13 11l-1.53-1.53a3.5 3.5 0 0 1 0-4.94Z"/>
    <path d="M20 2h2v2a4 4 0 0 1-4 4h-2V6a4 4 0 0 1 4-4Z"/>
    <path d="M11.47 17.47 13 19l-1.53 1.53a3.5 3.5 0 0 1-4.94 0L5 19l1.53-1.53a3.5 3.5 0 0 1 4.94 0Z"/>
    <path d="M15.47 13.47 17 15l-1.53 1.53a3.5 3.5 0 0 1-4.94 0L9 15l1.53-1.53a3.5 3.5 0 0 1 4.94 0Z"/>
    <path d="M19.47 9.47 21 11l-1.53 1.53a3.5 3.5 0 0 1-4.94 0L13 11l1.53-1.53a3.5 3.5 0 0 1 4.94 0Z"/>
  </g>

  <text x="82" y="250" fill="#f2b46d" font-family="Inter, Arial, sans-serif" font-size="34" font-weight="850" letter-spacing="6">PIZZA MATH</text>
  <text x="82" y="348" fill="#f2eee6" font-family="Inter, Arial, sans-serif" font-size="86" font-weight="920" letter-spacing="-6">Masa napolitana</text>
  <text x="82" y="433" fill="#f2eee6" font-family="Inter, Arial, sans-serif" font-size="86" font-weight="920" letter-spacing="-6">sin calculadora mental</text>
  <text x="82" y="505" fill="#b5ab9e" font-family="Inter, Arial, sans-serif" font-size="30">Harina, agua, sal y levadura con o sin poolish.</text>

  <g transform="translate(790 292)">
    <rect width="280" height="176" rx="10" fill="#eee8dc"/>
    <text x="28" y="50" fill="#10100e" font-family="Inter, Arial, sans-serif" font-size="20" font-weight="850" letter-spacing="2">RECETA BASE</text>
    <text x="28" y="92" fill="#10100e" font-family="Inter, Arial, sans-serif" font-size="28" font-weight="850">4 bollos x 260 g</text>
    <text x="28" y="133" fill="#10100e" font-family="Inter, Arial, sans-serif" font-size="24" font-weight="750">70% agua · 2.8% sal</text>
    <text x="28" y="160" fill="#746d64" font-family="Inter, Arial, sans-serif" font-size="18">poolish opcional</text>
  </g>
</svg>
